<svg width="120" height="120" viewBox="0 0 120 120" fill="none" xmlns="http://www.w3.org/2000/svg">
<path d="M60 10C32.4 10 10 32.4 10 60C10 87.6 32.4 110 60 110C87.6 110 110 87.6 110 60C110 32.4 87.6 10 60 10ZM60 30C69.65 30 77.5 37.85 77.5 47.5C77.5 57.15 69.65 65 60 65C50.35 65 42.5 57.15 42.5 47.5C42.5 37.85 50.35 30 60 30ZM60 100C49.85 100 37.85 95.9 29.3 85.6C38.0591 78.7311 48.8688 74.9981 60 74.9981C71.1312 74.9981 81.9409 78.7311 90.7 85.6C82.15 95.9 70.15 100 60 100Z" fill="#0171FC"/>
</svg>
